<svg viewBox="0 0 640 800" xmlns="http://www.w3.org/2000/svg" role="img">
  <defs>
    <linearGradient id="wall" x1="0" y1="0" x2="0" y2="1">
      <stop offset="0" stop-color="#4A4A48"/><stop offset="1" stop-color="#7D8B6A" stop-opacity="0.55"/>
    </linearGradient>
    <linearGradient id="floor" x1="0" y1="0" x2="0" y2="1">
      <stop offset="0" stop-color="#E8E1D5"/><stop offset="1" stop-color="#7D8B6A"/>
    </linearGradient>
  </defs>
  <rect width="640" height="800" fill="url(#wall)"/>
  <rect y="540" width="640" height="260" fill="url(#floor)"/>
  
  <rect x="180" y="40" width="260" height="180" rx="4" fill="#FAF8F4" opacity="0.35"/><rect x="180" y="40" width="260" height="180" rx="4" fill="none" stroke="#B9A68C" stroke-width="6"/>
         <line x1="310" y1="40" x2="310" y2="220" stroke="#B9A68C" stroke-width="4"/><line x1="180" y1="130" x2="440" y2="130" stroke="#B9A68C" stroke-width="4"/>
  <rect x="0" y="536" width="640" height="8" fill="#7D8B6A" opacity="0.5"/>
  <ellipse cx="230" cy="650" rx="220" ry="42" fill="#FAF8F4" opacity="0.35"/>
  <rect x="90" y="520" width="300" height="130" rx="26" fill="#B9A68C"/>
  <rect x="90" y="520" width="300" height="46" rx="23" fill="#E8E1D5" opacity="0.6"/>
  <rect x="70" y="600" width="40" height="70" rx="10" fill="#B9A68C"/>
  <rect x="370" y="600" width="40" height="70" rx="10" fill="#B9A68C"/>
  <line x1="500" y1="0" x2="500" y2="120" stroke="#7D8B6A" stroke-width="3"/>
        <path d="M472 120 h56 l-14 44 h-28 z" fill="#B9A68C" opacity="0.85"/>
        <circle cx="500" cy="150" r="9" fill="#4A4A48" opacity="0.9"/>
</svg>